<?xml version="1.0" encoding="UTF-8"?>
<svg id="Layer_1" data-name="Layer 1" xmlns="http://www.w3.org/2000/svg" viewBox="0 0 367 299">
  <defs>
    <style>
      .cls-1 {
        fill: #fefefe;
      }

      .cls-2 {
        fill: #769656;
      }
    </style>
  </defs>
  <rect class="cls-1" width="367" height="299"/>
  <path class="cls-2" d="M230,246V85h50.5l2.5,2.5v83.5c26.9-26.29,44.05-73.74,22.96-108.46-21.51-35.39-67.8-39.62-98.61-13.68l-18.33-13.37c63.93-66.94,168.64-16.8,150.51,77.53-11.26,58.56-64.99,93.67-104.98,132.02l-4.55.95Z"/>
  <path class="cls-2" d="M129,240.5c-2.23,2.52-4.93,1.8-7.56.55-4.3-2.05-42.89-38.01-48.97-44.02-24.69-24.39-48.22-54.16-53.17-89.83C8.66,30.53,82.64-19.78,150.01,17.5l-6.06,24.47c-30.38-17.27-67.74-12.15-87.78,17.7-25.3,37.68-2,86.81,25.34,116.32l3.21-12.78,44.29.79v76.5Z"/>
  <polygon class="cls-2" points="220 168 220.82 256.32 180.34 291.9 168 281.5 168 169 170.5 168 220 168"/>
  <polygon class="cls-2" points="184 163.5 168.72 165.22 163.04 170.74 162.5 269.99 157.08 271.51 136 254 136 119 182.5 119 184 120.5 184 163.5"/>
</svg>